<?xml version="1.0" encoding="utf-8"?>
<!-- Generator: Adobe Illustrator 24.0.1, SVG Export Plug-In . SVG Version: 6.00 Build 0)  -->
<svg version="1.1" id="レイヤー_1" xmlns="http://www.w3.org/2000/svg" xmlns:xlink="http://www.w3.org/1999/xlink" x="0px"
	 y="0px" viewBox="0 0 59.29 88.06" style="enable-background:new 0 0 59.29 88.06;" xml:space="preserve">
<path d="M59.07,81.16c-0.61-2.96-2.89-4.2-5.18-4.32c3.37-3.98,7.55-15.41-3.81-27.72c-3.04-5.51-5.69-6.88-10.01-12.18
	c-3.04-3.72-5.62-5.7-5.65-13.27c8.07,9.65,19.97,15.95,23.31,13.67c3.25-2.22,2.71-9.3-14.02-16.82c10.78,4.56,18,1.94,12.8-4.62
	C51.1,9.07,33.06,9.17,33.06,9.17s-1-3.97-5.35-7.11C23.35-1.08,14.68,0.21,8.8,0.56c-3.21-1.47-4.9,2.86-4.16,3.58
	c0,0-1.4,4.39-0.03,6.39c-0.44,0.79-3.34,6.93,2.76,14.76c6.09,7.83,4.67,10.76,1.34,17.69c-3.33,6.93-4.98,9.53-6.53,11.57
	c-1.54,2.04-2.71,5.39,0.19,6.72c2.14,0.98,4.35-1.51,5.65-5.34c1.3-3.82,3.33-2.28,3.33-2.28s-0.93,11.16,3.14,14.25
	c-5.7,0.97-4.65,9.3-1.42,12.23c-9.3,0-14.99,2.42-12.48,6.09C3.1,89.89,9.32,84.66,16,86.2c6.69,1.54,12.11,0.52,10.04-3.93
	c11.28,4.58,17.77,7.24,22.35,3.76C54.01,91.03,60.04,85.8,59.07,81.16z"/>
</svg>
