<svg enable-background="new 0 0 59.29 88.06" viewBox="0 0 59.29 88.06" xmlns="http://www.w3.org/2000/svg"><path d="m59.07 81.16c-.61-2.96-2.89-4.2-5.18-4.32 3.37-3.98 7.55-15.41-3.81-27.72-3.04-5.51-5.69-6.88-10.01-12.18-3.04-3.72-5.62-5.7-5.65-13.27 8.07 9.65 19.97 15.95 23.31 13.67 3.25-2.22 2.71-9.3-14.02-16.82 10.78 4.56 18 1.94 12.8-4.62-5.41-6.83-23.45-6.73-23.45-6.73s-1-3.97-5.35-7.11c-4.36-3.14-13.03-1.85-18.91-1.5-3.21-1.47-4.9 2.86-4.16 3.58 0 0-1.4 4.39-.03 6.39-.44.79-3.34 6.93 2.76 14.76 6.09 7.83 4.67 10.76 1.34 17.69s-4.98 9.53-6.53 11.57c-1.54 2.04-2.71 5.39.19 6.72 2.14.98 4.35-1.51 5.65-5.34 1.3-3.82 3.33-2.28 3.33-2.28s-.93 11.16 3.14 14.25c-5.7.97-4.65 9.3-1.42 12.23-9.3 0-14.99 2.42-12.48 6.09s8.73-1.56 15.41-.02c6.69 1.54 12.11.52 10.04-3.93 11.28 4.58 17.77 7.24 22.35 3.76 5.62 5 11.65-.23 10.68-4.87z"/></svg>