<svg enable-background="new 0 0 100 136.33" viewBox="0 0 100 136.33" xmlns="http://www.w3.org/2000/svg"><g fill="#b14943"><path d="m69.79 98.34s0 .01 0 0c0 .01 0 .01 0 0z"/><path d="m61.87 97.68c-.02 0-.05.01-.07.01.02-.01.05-.01.07-.01z"/><path d="m74.01 96.48c.01 0 .02.01.02.01.01 0 .02-.01.03-.01-.04-.01-.03-.02-.07-.02v.03c.01 0 .02-.01.02-.01z"/><path d="m61.46 97.51c-.02 0-.05.01-.07.03-.18.13 0 .22 0 .44.01-.02.03-.03.04-.04s.02-.02.04-.04c.01.01.03.02.04.03s.02.03.04.04c.01 0 .03-.02.03-.02-.01-.06.02-.11.06-.15-.02-.12-.05-.23-.1-.28v.01c-.05-.01-.07-.01-.08-.02z"/><path d="m74.29 97.58c0 .01.01.02.01.03.01-.01.02-.01.02-.02-.01.01-.02.01-.02.02 0-.01-.01-.02-.01-.03z"/><path d="m61.78 98.71c0-.01-.01-.01 0 0-.01-.01-.01 0 0 0z"/><path d="m61.79 98.5c-.05-.04-.1-.07-.15-.11 0 0 .02-.04.03-.05.03-.01.06 0 .08-.01.04-.01.08-.02.12-.03.01-.01 0-.02.01-.03.01 0 .02-.01.03-.01.02-.05.02-.05.03-.1-.01-.01-.03-.03-.04-.04-.03 0-.06-.01-.09-.01-.02-.03-.04-.04-.06-.06 0 0-.03.02-.04.03s-.03.02-.04.03c-.01-.02-.02-.03-.04-.04s-.05-.03-.06-.02c-.04.04-.07.09-.1.14-.03 0-.06 0-.1 0-.02.25-.05.25 0 .49.02.09.06.08.12.15 0-.01 0-.01 0-.02-.03-.04-.05-.07-.08-.11h.07c.06-.02.15.04.18-.07.02.01.04.02.05.03.01 0 .02.01.02.02.02-.05.04-.09.06-.12 0-.02 0-.04 0-.06z"/><path d="m74.23 96.59c.01.01.03 0 .04-.01.01-.02.02-.04.04-.05-.08-.03-.08-.03-.16-.03.02.02.05.06.08.09z"/><path d="m62.08 97.98v.02c.01-.01.01-.01 0-.02z"/><path d="m74.5 96.74c.01 0-.06-.06-.07-.07v.06c.04.01.06.02.07.01z"/><path d="m74.04 96.05c0 .01.01.02.01.02 0-.01-.01-.01-.01-.02z"/><path d="m61.8 97.58s.01-.01.03-.02c-.01.01-.03.02-.03.02z"/><path d="m74.06 98.06c-.01.01-.02.03-.01.05 0 .02.04.01.09.01-.02-.03-.07-.04-.08-.06z"/><path d="m61.73 98.68s.01.01.03.02c0-.01-.01-.02-.03-.02z"/><path d="m74.06 98.04v.01c.01-.01.01-.01 0-.01z"/><path d="m74.4 102.17c.02 0 .05-.01.05-.01-.02 0-.04.01-.05.01z"/><path d="m62.82 100.08c-.01 0-.01 0-.02 0 0 .01-.01.01-.01.02.02-.01.03-.01.03-.02z"/><path d="m62.82 100.08c.04.01.08.02.12.03-.01-.01-.02-.02-.03-.03-.02 0-.03-.01-.05-.01-.01 0-.02 0-.04.01z"/><path d="m68.69 101.66h-.11c-.03 0-.06 0-.09 0-.01.01-.03.01-.04.02 0 0 0 0-.01.01.09 0 .17-.01.25-.03z"/><path d="m68.43 101.65c-.01.01-.02.01-.03.01h.04c.01 0 .02-.01.03-.01z"/><path d="m74.18 106.07c-.03 0-.07.01-.1.01-.01.01-.01.01-.01.02.04 0 .08-.01.11-.03z"/><path d="m74.34 106.13h-.25c-.01.01-.03.02-.04.02.01-.01.02-.02.03-.02h-.19c.06-.02.12-.03.19-.04.03-.04.09-.05.13-.02.01-.01.02-.01.03-.02-.01.01-.02.01-.03.02 0 0 .01.01.01.01-.01 0-.02 0-.04 0-.02.01-.05.03-.07.04.05-.01.12 0 .17.01h.06.02c-.01-.04-.02-.08-.02-.13 0-.31.23-.31.23-.61 0-.31-.02-.31-.02-.61 0-.31-.05-.31-.07-.62-.05.04-.17.09-.28.08 0-.06-.04-.18.06-.22.02-.01.06-.08.07-.13-.01 0-.01-.01-.02-.01.06.01.21 0 .23.03.01-.27-.09-.28-.09-.55s.12-.27.12-.55.02-.28.01-.55c-.02.02-.18.03-.2.05 0 0-.03.01-.04 0s-.02-.07-.03-.1c.03-.01.05-.03.08-.04-.02 0-.04.01-.03.01 0-.34.07-.34.07-.68s.08-.34.08-.68-.09-.34-.09-.68.08-.34.08-.68-.12-.34-.12-.68-.03-.34-.03-.68c0 0 .19-.08.19-.08-.03-.03-.12-.04-.14-.06-.01.02-.09.05-.1.07-.03.03-.07.03-.1.06-.02 0-.04.01-.06.01v.01c.02.02-.02.07-.03.1 0-.03-.01-.08-.01-.08-.04 0 .02.21-.03.22-.03.05 0 .16-.12.16 0 .04.06.04.06.07-.04.03-.26 0-.31.04-.02-.25.07-.25.18-.48.15-.33.16-.31.4-.59 0 0 .04-.02.04-.03-.01-.03-.03-.08-.09-.08-.01 0-.01-.02 0-.03s.02.02.03.02c.05-.01.11-.04.14-.1.01-.03-.05-.08-.01-.1 0-.01.01-.02.01-.03-.2.09-.23.09-.44.27.01.01-.03-.01-.01 0-.03.01.01.1-.02.11-.02.01-.04 0-.05 0 .05-.04-.01-.11.04-.16-.01-.01-.03.05-.04.04-.03-.04.11-.27 0-.27 0-.04-.02.03-.02 0 .03-.03 0-.12.03-.13.02-.01.02.16.04.17.01 0 .05-.08.07-.12 0 .03.01.04.02.04 0 .06.16-.03.16 0 .07.04.08.06.08.01 0-.02-.08-.13-.07-.15.02.02.05.11.07.13.01.01.04.03.05.03s-.06-.05-.06-.06c0-.03 0-.13.02-.15.02-.03.14.03.16.01.01-.01 0-.03.01-.03 0-.12-.01-.14-.01-.23-.05-.02-.11-.05-.12-.03-.01 0 .04.06.03.05 0 .04-.03.04-.03.11-.05-.04-.07-.03-.12-.07 0-.01-.01-.01-.02-.01.01 0 .01.01 0 .01 0 0-.01 0-.02-.01-.02 0-.03-.01-.04-.03.01.01.02.01.03.02-.03-.03-.07-.09-.08-.09s-.13.05-.13.04c0-.04.1-.17.08-.22-.01 0-.02.01-.03.01v-.01c0-.01 0-.01 0-.01-.02 0-.02-.01-.05-.01 0-.03 0-.06 0-.09-.04-.02-.08.1-.12.1-.01.01-.01-.03-.02-.03-.02-.01-.08-.03-.09-.04-.02-.23.02-.24.05-.47.01-.04.04-.04.09-.02.01-.01-.03-.03-.01-.05.03 0 .08.09.13.09 0 .04.05.06.07.09-.01-.02-.02-.06-.02-.06.24.13.16.29.43.3-.01-.25.02-.5-.1-.7-.13-.21-.42-.28-.64-.4-.2-.12-.42-.22-.67-.22-.31 0-.31-.08-.62-.08s-.31-.03-.62-.03-.31.07-.62.07-.31.05-.62.05-.31-.02-.62-.02-.31-.1-.62-.1-.31.23-.62.23-.31-.12-.62-.12-.31.03-.62.03-.31-.03-.62-.03-.31.03-.62.03-.31.09-.62.09v-.12c0 .01-.02.03-.03.03-.05 0-.14-.06-.18-.06-.03.04-.02.14-.04.16.01 0 .08-.01.08-.01 0 .04-.03.06-.02.1 0 0-.08.01-.08.01s-.09.06-.09.06.08-.09.08-.09c-.02 0-.03.03-.06.03 0-.05-.07-.07-.08-.11 0 0 .02.01.03.01-.02-.03.03-.15 0-.16-.02-.02-.1.04-.13.03-.02-.01-.09.09-.11.09.01 0 .04.02.05.02-.04 0-.03-.02-.08-.02 0 0-.06-.15-.06-.15-.08.05-.15.18-.14.3 0 .03.04.06.03.08-.02-.02-.09.02-.11 0-.01-.01.02-.03.03-.03-.02 0-.07-.03-.07-.01-.01.03-.01.16-.02.16-.07-.01-.01-.12-.02-.16-.01-.06.06-.14.06-.2-.03-.01-.04-.04-.06-.05 0-.03-.08-.12-.08-.15-.29-.02-.3.21-.59.21s-.29-.21-.58-.21-.29.24-.58.24c-.26 0-.56-.15-.76-.03-.21.12-.38.38-.5.59s-.15.47-.15.73.13.26.13.51-.18.26-.12.51c.02.06.03.08.06.1.02 0 .04.01.06.02.01-.02.02-.05.02-.05s-.01.03-.01.03c.13.05.11.1.23.15 0 0-.06-.12-.06-.12s.12.01.13.02c.03-.02.06-.06.06-.05.04.02.06.04.09.06 0 .05-.02.2-.07.18 0 .06.01.04.02.09s-.01.1.03.14c.01-.01.12 0 .13-.01 0 .01 0 .02-.01.02.02.01.01.08.04.09-.01.01-.02.01-.03 0-.01 0-.02-.05-.02-.08-.03.07-.09.07-.11.17.03.03.07.08.1.11-.05 0-.05.01-.08.01-.06.16-.14.18-.21.27v.1c0 .03 0 .04-.02.05.05.02.13.05.13.05s-.14-.05-.15-.05c-.03.11-.08.09-.12.2-.02.02.05.01.03.03-.02-.02-.08.06-.1.04-.02 0-.03-.04-.05-.04.01.01.02.03.03.04-.01-.01-.02-.01-.03-.01-.03 0-.07.03-.11.05 0 .29.05.3.05.61 0 .32.02.32.02.64s-.07.32-.07.64-.03.32-.03.64.07.32.07.64-.17.32-.17.64-.03.32-.03.64.2.32.2.64.01.32.01.64-.06.32-.06.64v.05c.05.06.03.15.01.23 0 .01.01.03.01.04-.01 0-.01-.01-.02-.01v.01.04c.04-.01.08-.03.11-.06.01-.02.02-.03.04-.03-.01.01-.03.02-.04.03-.02.04-.02.11-.07.11-.03 0-.04-.03-.05-.06 0 0 0 0-.01 0 0 .07-.01.14-.01.27 0 .32.04.32.04.64 0 .31.08.55.25.78.06-.06.14.02.2-.04.02 0 .02-.11.07-.11 0 .05.03.07.03.12.05.03-.01.04 0 .14.01 0 .07-.01.12-.02-.02.01-.03.02-.03.02.01.08.05.1 0 .15-.03.03.01.13-.03.17 0 0-.12.01-.12.01.11.08.28.17.42.22.03-.02.14-.1.17-.12.01.01.01.03.01.04.09.02.18.14.28.14.32 0 .32-.13.64-.13s.32.18.64.18h.64c.32 0 .32-.13.64-.13s.32.02.64.02.32-.01.64-.01.32.05.64.05.32-.13.64-.13h.64c.32 0 .32.2.64.2s.32-.14.64-.14.32.08.64.08.32-.03.64-.03.32-.17.64-.17.32.14.64.14.32-.03.64-.03c.26 0 .5-.04.71-.16s.46-.26.59-.48c.12-.21.24-.49.24-.75s-.17-.3-.22-.48c.1-.03.09-.03.09-.03zm-.11-3.9c.02 0 .04 0 .06-.01-.02.02-.04.03-.05.04-.02.01-.04.03-.04.02-.01-.02.03 0 .03-.05zm-.07 1.5c.06 0 .08.04.15.04 0 .04-.03.07-.03.11-.05-.03-.09-.08-.15-.11.02-.03-.01.01.03-.04zm-.18-6.69c.01 0 .01.01.01.03 0-.02-.01-.03-.01-.03zm0-.53c-.01 0-.01 0-.01 0zm-12.35 2.61c0-.02-.01-.04-.01-.06.01.02.03.04.05.08-.02.01-.04-.02-.04-.02zm.31 3.91-.14.06s0 .01-.01.01c0 0 .01.01.01.01.04 0 .07 0 .1.01-.03.02-.08.01-.1-.01-.01 0-.02 0-.03 0l-.03.01c-.01-.01-.02-.02-.02-.03-.02-.02-.04-.05-.03-.07.01-.03.04-.04.07-.04.06-.02.12-.03.19-.03-.01.02-.04.02-.06.03s-.04.03-.03.05.03.02.05.02c.01-.02.02-.02.03-.02l.18-.07c.01.01.02.02.03.03-.06.02-.13.04-.21.04zm.35 4.45c-.01 0-.02 0-.04-.01.01 0 .02 0 .04.01-.01-.01-.02-.02-.02-.03-.01-.03 0-.05.03-.06 0 .02-.01.05-.01.07-.01.01.06.05.06.06-.02-.01-.04-.03-.06-.04zm.02-.09s0 0 .01-.01c.01 0 .03 0 .05-.01 0 .01-.06.03-.06.02zm3.95-12c0-.03.01-.07.01-.07 0 .02.01.03.02.05s.02.04.02.06c0 0-.01 0-.02 0-.02 0-.05 0-.05 0-.01 0-.02 0-.02 0 0-.01.02-.02.04-.04zm-1.35 1.87c.05-.04.1-.08.15-.12-.01-.01-.01-.01-.01-.02-.07 0-.09-.06-.17-.06 0-.05-.05-.04-.06-.09-.01 0-.06.06-.07.05-.02-.01 0-.1-.01-.11.02-.01.06.03.08.03.05-.01.07-.05.06-.14.05 0 .15.04.2.04 0-.05-.06-.18-.06-.23.07 0 .23-.03.3-.03 0 .04-.11.06-.11.11-.1.01-.07.22-.07.29.01 0 .03 0 .04.01.22-.29.3-.64.37-.93.13-.54.55-.54.64-.54.31 0 .57.2.57.58 0 .62-.73 1.11-1.47 1.28v.01s.01.01.01.01 0 0-.01 0-.02 0-.02-.01c-.18.04-.35.06-.52.06-.09 0-.1 0-.1-.03-.01-.02.22-.13.26-.16zm-1.03-1.74c0 .02.06.04.06.05-.01.03-.04.08-.05.1-.01-.01-.02-.08-.04-.11.01-.02.02-.04.03-.04zm-.19-.09c.03 0 .02.08.04.1 0 0 0 0-.01 0 0-.01 0-.02 0-.02-.01 0-.01-.01-.01-.01-.02-.03-.03-.06-.02-.07zm.03.18v.02c-.01-.01-.01-.01 0-.02zm.1.16c.6 0 .82.45.82.68 0 .31-.26.52-.53.52-.33 0-.45-.26-.53-.49-.06-.16-.2-.49-.4-.49-.02 0-.12.03-.14.03-.01 0-.03-.02-.03-.04 0-.04.44-.21.81-.21zm-.89 2.16h2.94c.24 0 .35-.1.47-.22.14-.15.23-.25.44-.25.19 0 .43.14.43.37 0 .17-.13.36-.48.36h-.59c-.61 0-1.44.28-1.44.89 0 .62.74.64 1.17.65.24.01.46.16.46.45 0 .1-.05.51-.56.51-.8 0-1.42-.71-1.42-1.53 0-.6.28-.84.41-.95h-1.36c-.04 0-.19.02-.22.02-.05 0-.17-.18-.2-.21-.02-.01-.1-.04-.1-.06.01-.02.04-.03.05-.03zm4.13 3.47s.01.01.02.01c-.01 0-.03 0-.04 0 .03.01.05.02.08.03-.05 0-.09 0-.14 0l-.08.04c.03-.01.05-.03.08-.04-.04 0-.09 0-.13 0 .06-.02.11-.02.17-.03 0 0 .01 0 .01-.01-.01-.01-.03-.01-.03-.03 0 0 0 0 0-.01-.01-.01-.01-.02 0-.03s.04-.01.05 0c.05-.02.09-.04.14-.06-.04.03-.08.07-.12.1-.01.02-.01.02-.01.03zm-1.83.45c-.02-.02-.06-.09-.08-.12.02-.02.06.01.07-.01.01.03-.04.01-.04.04.01.02.07.07.05.09zm-.25.31c-.01-.01-.09.01-.1 0-.01.01-.06.01-.08.02 0 0 .01-.01.01-.01.01 0 .02.01.02 0 0 0-.01 0-.02 0-.03.01-.07.03-.08.02-.01.02-.11-.05-.12-.04-.03.03-.06.05-.1.09-.01 0 .05.08.03.08-.09-.03-.12.09-.19.11.01.02-.01.05-.01.08-.05-.01-.12-.01-.16-.04 0-.03-.06-.12-.06-.14.05-.06.16-.08.2-.13.01-.01.09.04.1.03s-.03-.06-.04-.06c-.04-.04-.03-.12-.09-.16 0-.03-.09-.09-.09-.14.05 0 .13-.05.17-.06.03 0 .1.08.15.13.02.07.09.15.12.19.02.03.13-.11.15-.09.02-.02.05.05.07.03.01 0 .08-.06.09-.04.02.01 0 .12.04.15 0-.07.06-.06.06-.09.08-.04.04-.1.03.09-.03.04-.06.08-.08.11-.01.01-.04-.05-.05-.06 0-.03.04-.05.03-.07zm-.6.46c-.01 0-.01-.02-.01-.03.01.02.02.02.01.03zm-.29-.54c.04 0-.01.03.03.03 0 .04.09.05.09.1-.05 0-.14 0-.18 0-.01-.05.06-.09.06-.13zm-.06-.33v.02c-.02 0-.01-.01 0-.02zm.47.14h.02v.02c-.01-.01-.01-.02-.02-.02zm.07 0h.01c.01 0 0 0-.01 0zm-.56-.16c-.04.01-.09.05-.11.04-.01-.01-.03-.06-.04-.07.01-.01.07.03.09.03.01-.01.04 0 .06 0zm-.04-.31c0-.01 0-.02.01-.02 0 .01-.01.03-.01.02zm-1.41 6.49c-.03 0-.01.01-.05.01.01-.02.02-.02.02-.06.05 0 .02-.09.03-.07.05.05.07.01 0 .12zm.22-7.74c-.01-.02 0-.04.02-.06 0-.01 0-.01.01-.02h-.01c.01 0 .01-.01.02-.01.01-.02.04-.04.07-.03-.02.01-.04.02-.07.03 0 0 0 .01-.01.01h.01c.02-.03.07-.04.1-.02 0 0 .01.01.01.01.03.01.06.03.09.05h-.01c.01.02-.01.03-.02.04-.03.02-.07.04-.11.05-.04 0-.09-.02-.1-.05zm4.36 5.34c-.03-.03 0-.13-.03-.17 0 0-.03-.01-.06-.01.02 0 .03 0 .04-.01.02-.03.02-.05.01-.07 0 0 0 .01.01.01.04.05.03.12.08.16 0 .03.08.06.08.12-.04 0-.12-.01-.13-.03zm-.2-1.8h-1.47v.59c0 .09.01.45.02.53h.22c.1 0 .25-.02.36-.14.14-.16.2-.23.34-.23.17 0 .33.15.33.33 0 .14-.09.31-.37.31h-.89c0 .18.01.45-.02.76.31.04.57.08.79.12.02-.02.04-.04.06-.05-.01.01-.01.03-.01.03v.03c.06.01.11.02.16.04-.01-.02-.01-.04-.01-.06-.03-.01-.06 0-.09 0 0 .01.01.03.01.02 0 0-.03-.04-.05-.06h.02c0-.01-.01-.02-.01-.02s0 .01-.01.02c-.01-.01-.02-.02-.02-.02.02-.02 0-.02.01-.05.01-.04.14-.22.14-.22-.06-.01-.05-.02-.05-.04.06.02.15.04.15.05.01.01.01.02.01.03.03-.01.06-.01.07-.02.02.02 0 .22.02.25l.32.14c-.02 0-.07.02-.09.03-.03.01-.11-.03-.13-.03.02.01.01.06.01.08.2.09.3.21.3.39 0 .22-.21.38-.39.38-.12 0-.18-.02-.72-.24-.16-.06-.37-.14-.59-.21-.2.76-.7 1.23-1.32 1.23-.51 0-.87-.43-.87-.88 0-.53.5-1.03 1.54-1 .03-.29.03-.38.02-.69h-.72c-.04 0-.19.02-.22.02-.04 0-.05-.01-.11-.11-.06-.09-.07-.09-.16-.11-.01-.01-.02-.01-.02-.03 0-.03.02-.03.04-.03h1.2v-1.11h-1.3c-.03 0-.18.02-.21.02-.05 0-.16-.18-.19-.2-.02-.01-.1-.05-.1-.06 0-.02.02-.03.04-.03h1.77v-.26c0-.25-.02-.37-.08-.43-.02-.02-.11-.06-.11-.07 0-.03.02-.04.13-.04.33 0 .79.07.79.5v.3h.8c.13 0 .25-.02.37-.15.13-.14.19-.21.33-.21.17 0 .33.14.33.33 0 .11-.1.27-.37.27zm-.09 1.78c-.02-.01-.09-.04-.11-.06-.01.02-.02.12-.04.15-.03 0 .03-.07-.02-.07 0-.07.01-.01.01-.08.04 0-.02-.05.01-.05.04-.05.06-.12.11-.17.03 0 .05.06.1.06.01.02 0 .04.02.04.01 0 .02.01.04.01-.01 0-.01 0-.01 0-.03.04 0 .12-.03.15-.02.02-.06.02-.09.03.01.01.02 0 .01-.01zm-.05.06v.01c-.01 0 0-.01 0-.01zm-.59-.26c.05 0 .09.1.14.1 0 .05.07.02.08.07.05 0 .01.08.08.09-.02.03-.07.02-.11.01v-.01c-.04 0-.08-.01-.11-.01-.04-.04-.02-.06-.05-.09 0-.02.01.03.01-.01.02-.01-.05-.15-.04-.15zm4.95-9.81c.19 0 .9 0 .9.59 0 .29-.24.53-.53.53-.18 0-.53-.12-.53-.57 0-.31 0-.43-.22-.43-.09 0-.14 0-.14-.03.01-.08.44-.09.52-.09zm-1.48 2.72c.01-.01.03-.01.05-.01.03-1.32.5-1.32.86-1.32.13 0 .14 0 .14.03 0 .02-.1.09-.11.1-.15.21-.17.96-.17.99 0 .22.03.46.25.46.09 0 .18-.02.52-.14.41-.15.68-.25 1.06-.25.68 0 .95.43.95.92 0 .94-1.02 1.7-1.86 1.7-.5 0-.72-.3-.72-.58 0-.06.02-.19.06-.19.02 0 .04.06.05.07.06.14.28.16.35.16.6 0 1.24-.66 1.24-1.14 0-.36-.35-.41-.57-.41-.29 0-.48.06-.85.19-.53.18-.59.21-.67.21-.07 0-.53-.02-.53-.64 0-.01 0-.03 0-.04-.06-.04-.11-.06-.05-.11zm3.17 6.87v.17c-.02 0-.04-.03-.04-.03-.01-.04.03-.06.03-.1.01-.01-.01-.04.01-.04zm-.04-.28c-.03.03.01.08 0 .1-.01-.06-.1-.11-.14-.11-.02 0 .03.06.01.05.01-.02-.08-.04-.07-.06l.07-.07c.06 0 .1.08.17.08.01.03-.04-.01-.04.01zm-2.23-2.91c-.05.02-.1.02-.14.01l-.09-.03c.07-.01.14-.04.2-.08 0 .02.01.06.03.1zm-1.16-3.21c.05 0 .02-.03.04-.03.04-.04.1-.05.15-.09 0-.01 0-.01.01-.02.02.01.05.02.07.02.03 0 .04.22.01.24-.02.02-.05.04-.08.07-.07 0-.14-.07-.24-.07 0-.06.04-.04.04-.12zm.1.47c0 .04.04 0 .05.06.03 0 .04.06.05.09.04 0 .09.01.09.01-.02.02-.06.04-.09.07-.03-.01-.06-.01-.08-.08-.02.02-.06.02-.09.04v.01c-.01 0-.03.01-.03.03.02.01.03.02.05.04-.02.01-.03.03-.04.05.01.01.04.03.05.05-.02-.01-.04-.02-.06-.03v.02c.04.02.09.04.09.05-.03.04-.06.06-.08.09-.01.01-.05-.05-.06-.05s0 0 .01-.01.02-.01.01-.02c0 0 0 0-.01 0 0-.01 0-.03 0-.05-.03-.05-.04-.1 0-.13.01-.01.03-.02.05-.03l-.01-.09c-.03-.01-.05-.01-.06-.01-.02.01.02.09-.01.11 0-.06.01-.15.01-.19-.03 0-.04 0-.05 0 0-.01 0-.01.01-.03zm-.2.34c0-.01 0-.02 0-.04.01.02.01.03 0 .04zm0-1.35c0 .03-.02.04-.04.05.01-.01.01-.05.04-.05zm-.16.11h.01.01c.02-.02.05 0 .1-.03v.01c-.02.03-.04.02-.07.04.01.01.02.02.02.03 0 .02-.01.02-.03.03 0 .03 0 .06 0 .05-.01-.01-.03-.03-.04-.04-.02 0-.03.01-.05.02l.03-.04s0-.01-.01-.01-.02 0-.03-.01c0 0 .01-.01.01-.01-.01-.01-.01-.01-.02-.02.01-.01.04-.02.07-.02zm-.26.78c0-.01.01-.02.01-.03l.01.01c.01-.01.02-.03.02-.06.05.04-.01.07.04.11 0 .04.09.06.09.13-.03-.02-.07-.05-.1-.07-.02.01-.04.02-.07.01 0-.02 0-.03 0-.05 0 0-.01-.01-.01-.01-.01-.01 0-.02.01-.04zm-.37-.86c0 .04.11.06.11.11-.02 0-.08.02-.11.02 0 0 0-.06 0-.08 0 0 .01.01.01.01.01-.03 0-.04-.01-.06zm-.17-.2c0-.03-.01-.08-.01-.13.02.03.04.06.07.09 0 .01.01.03.01.05.06.06.09.14.08.23 0-.04-.02-.08-.04-.11v.02c-.04-.01-.11-.03-.16-.04-.02 0 .01-.06-.02-.06.01-.06-.03-.03.07-.05zm-.42 3.7c-.01.07-.05.15-.12.16l.12-.16c0-.08-.03-.15-.06-.21-.01-.02-.02-.03-.04-.04-.01 0-.02 0-.02 0h.02c.06.01.12.02.18.02-.03.03-.06.07-.09.1 0 0 .01 0 .01.01.01.04.01.08 0 .12zm.73 3.49c-.01.01-.02.02-.03.03-.03.01-.06.01-.09 0-.01 0-.01 0-.02 0 0 0-.01.01-.01.01.02.02.03.04.05.06h.01c.03.01.08.01.08.05 0 .02-.01.03-.02.04-.02.01-.05.01-.08 0l-.01.03c-.03-.1-.1-.19-.18-.25.01-.01.02-.01.02-.02-.01-.02-.02-.05-.01-.07.01-.03.04-.05.06-.03 0 .04-.02.08-.05.11v.01c.02.05.06.09.11.11 0-.01.01-.03.02-.04 0-.01-.01-.01-.01-.02-.02-.01-.04-.02-.03-.05.01.02.02.03.03.05.01 0 .02.01.02.01 0-.01.01-.01.02-.02.03-.03.08-.04.12-.05 0 0 0-.01.01-.01v.01h.02c-.01.01-.02.03-.03.04zm-.03-3.42c.02.01.03.02.04.04-.02 0-.03 0-.05.01 0 .01-.01.02-.01.02-.02.03-.05.05-.09.05-.01 0-.03 0-.04 0-.02-.01-.02-.04-.01-.05-.07.01-.15.01-.22.01.02-.05.07-.07.12-.1l-.37.01c.1-.01.19-.01.29-.02-.01 0-.01 0-.02 0l-.33-.01c.04.01.07-.02.11-.04.07-.02.15.02.22.04h.1.01c.02-.01.04-.02.06-.02l.02-.02c-.01 0-.02 0-.04 0-.05.01-.1.01-.15.02.03 0 .05-.01.08-.01-.01 0-.02-.01-.03-.02h.09c.01-.01.02-.01.02-.02.06-.05.12-.11.18-.16 0 .05-.03.1-.07.13-.02.02-.03.03-.05.05h.08.11c.02 0 .03-.01.05-.01-.01.01-.02.01-.03.02.03 0 .06 0 .1.01-.05.04-.11.07-.17.07zm.23-.09c-.04 0-.08-.01-.1-.03l-.09-.01c-.03 0-.06 0-.09-.01.09-.08.21-.12.32-.11-.05.05-.11.08-.17.09l.03.03.49.04h.04c-.01 0-.02-.01-.03-.01l-.06-.03c-.01-.01.01-.03.03-.03 0 .02.01.04.03.06l.03.01h.01-.01c-.01 0-.03 0-.04 0-.14.01-.26.01-.39 0zm3.89 5.58c0 .25-.22.33-.32.33-.12 0-.16-.03-.47-.29-.43.28-.9.41-1.14.41-.37 0-.69-.33-.69-.75 0-.45.37-.71.81-.71.33 0 .68.14 1.02.3.44-.34.53-.61.53-.81 0-.45-.46-.61-.84-.61-.47 0-1.08.3-1.24.38-.29.14-.44.22-.53.22-.15 0-.33-.13-.33-.32 0-.13.01-.14.27-.44.57-.64 1.17-1.33 1.17-1.68 0-.14-.11-.18-.28-.18-.18 0-.42.06-.49.09-.14.05-.16.05-.17.05-.05 0-.19-.15-.23-.16-.01-.01-.09-.02-.09-.05 0-.05.49-.22 1.01-.22.9 0 1.22.46 1.22.76 0 .39-.31.76-.68 1.11h.12v-.01s.01.01.01.01h.03c.04-.02.07-.08.11-.08 0 .01-.01.05-.01.09h.04c.02-.03.04-.06.06-.07 0-.01-.01-.09-.01-.1.06 0 .13.06.19.07.01 0-.02.06-.02.07s.04.05.04.05c-.01 0-.02 0-.02.01.68.11.98.45 1.07.81.01 0 .01.01.01.01s0 0-.01.01c.02.08.03.17.03.25 0 .41-.18.75-.46 1.05.2.13.29.2.29.4zm.51-2.11c-.04 0-.12 0-.16 0-.03-.04 0-.14-.02-.18-.03-.08.1 0 .1-.07.06 0 .05-.05.11-.05.03.11.06.23-.03.3zm.23-3.42c-.07.05-.16.06-.24.02-.02.01-.04.02-.06.04l-.03.02h.03c-.01 0-.02 0-.03 0l-.01.01c.06.01.13.03.19.04-.12.05-.25.07-.38.06l-.14.07c.03-.03.07-.05.1-.08-.01 0-.02 0-.03-.01.04-.05.1-.1.15-.14-.03 0-.06-.01-.09-.02.04 0 .08 0 .12-.01.04-.02.07-.04.11-.06 0 0-.01-.01-.01-.01.01 0 .01 0 .02.01.01 0 .01 0 .01-.01h-.01c-.02.01-.05.02-.07.02-.02.01-.04.01-.06 0s-.03-.03-.01-.05c.05-.01.1 0 .14.02.01 0 .02-.01.03-.01.08-.07.15-.14.22-.21-.02.07-.07.13-.13.16-.03.02-.06.03-.09.04-.01 0-.01.01-.02.01.07-.03.14-.05.22-.06.04-.01.1 0 .11.05s-.01.08-.04.1z"/><path d="m67.03 101.41h.01z"/><path d="m67.02 101.41s.01 0 0 0c.01 0 .01 0 0 0l.03-.01h-.01s-.01 0-.02.01z"/><path d="m73.06 101.75s.01-.01.01-.01-.01.01-.01.01c-.01 0 0 0 0 0z"/><path d="m73.25 101.7c-.01 0-.02-.01-.02-.02-.01.01-.02.01-.03.01h.04c-.02 0-.03.01-.05.01-.01.01-.02.01-.03.02-.02.01-.04.03-.06.04.02 0 .03.01.05.01h.03.01c-.02 0-.04 0-.05 0 .02-.03.06-.05.11-.07z"/><path d="m67.02 101.36c-.01 0-.02.01-.02.02l.02.02c.01 0 .02 0 .02.01.01 0 .01-.01.01-.01 0-.01 0-.03-.01-.04 0-.01-.01-.01-.02 0z"/><path d="m68.49 101.64h.01c.02-.01.04-.02.06-.03 0 0 .01-.01.01-.01-.03.01-.06.02-.08.04z"/><path d="m61.42 105.62c-.01-.02-.01-.04-.01-.06v.08s.01 0 .01.01c0-.01 0-.02 0-.03z"/><path d="m68.48 101.65c.01 0 .01 0 0 0 0 0 0 0-.01 0z"/><path d="m74.4 97.21c.03-.01.06-.02.09-.04.07-.03-.04-.02-.09.04z"/><path d="m74.18 96.78c-.01 0-.01-.01-.02-.01 0 0 .01.01.01.01 0-.01.01-.01.01 0z"/><path d="m70.69 106.74c0 .14.12.23.25.23.15 0 .42-.11.52-.14-.14-.12-.38-.29-.56-.29-.09-.01-.21.05-.21.2z"/><path d="m69.64 99.32c.01 0 0-.01-.02-.02.01.01.01.02.02.02z"/><path d="m69.62 99.31s0-.01-.01-.01-.01 0-.01 0c.01 0 .02 0 .02.01z"/><path d="m65.27 97.38s0 .01 0 0c.01 0 .01.01.02.01s0 0-.01-.01z"/><path d="m63.63 106.63c0 .14.14.26.33.26.09 0 .44 0 .64-.56-.14-.02-.27-.02-.29-.02-.39.01-.68.13-.68.32z"/><path d="m61.37 98.99c0 .04.02.04.05.02 0-.01 0-.02 0-.02-.01 0-.06 0-.05 0z"/><path d="m68.55 98.22c.01 0 .01 0 0 0z"/><path d="m66.34 105.92c.01.02.02.04.02.04h.01c-.01-.02-.01-.04-.01-.04-.01 0-.02 0-.02 0z"/><path d="m69.58 99.29h.02c-.01 0-.02-.01-.02 0z"/><path d="m66.58 105.7c-.02-.01-.01-.02-.01-.03-.02 0-.03.01-.04.01-.02.01.07.03.05.02z"/><path d="m62.28 107.47c.01 0 .01.01 0 0 .01.01.01.01 0 0 .01 0 .01 0 0 0z"/><path d="m66.28 95.38c-.01 0-.01.01-.02.01v.01c.01 0 .02-.01.02-.02z"/><path d="m68.44 98.06c.01.01.03.02.04.03-.01-.03-.03-.08-.04-.12 0 0-.01-.01-.01-.01z"/><path d="m68.49 98.09c0 .02.01.03.02.05-.01-.02-.01-.04-.02-.05z"/><path d="m69.13 98.29c.01 0 .01 0 .02-.01l-.02.01c.01.01.02.02.02.03.01 0 .03-.01.04-.01 0-.03 0-.05 0-.06 0 0 .01 0 .01-.01-.01-.01-.02-.01-.04-.01h-.01c-.02.01-.03.02-.04.03.01.02.02.02.02.03z"/><path d="m68.96 99.11c.01-.03-.01-.05-.02-.06l-.02-.05c0 .01-.01.01-.02.02 0 .01-.01.03-.01.04.02.02.04.04.07.05z"/><path d="m69.4 99.5c.01.02.03.04.04.06-.01-.02-.02-.04-.02-.06-.01 0-.01 0-.02 0z"/><path d="m69.41 99.46v.01s.01 0 .01.01c0-.01 0-.01 0-.02z"/><path d="m69.42 99.17.01.08c.04.01.08.03.09.02 0 .01 0 .02.01.03l.02-.02c-.04-.04-.09-.07-.13-.11z"/><path d="m68.39 101.7c-.03 0-.06 0-.09 0 .03.01.06.01.09 0z"/><path d="m68.4 101.7c-.01 0-.01.01-.02.01h.23c-.07-.01-.14-.01-.21-.01z"/><path d="m61.41 105.56c0-.05 0-.1 0-.17-.01.06-.01.12 0 .17z"/><path d="m61.34 105.49c.01-.04.03-.07.01-.1-.03-.05-.11-.02-.12.03-.02.05 0 .11 0 .16 0 .06-.01.12-.05.17l.21-.03c0-.02 0-.04 0-.06-.03-.05-.06-.11-.05-.17z"/><path d="m74.56 106.13h-.21c.07.01.14.01.21 0z"/></g><g fill="#fff"><path d="m.3 62.82c0 .02-.01.16-.01.19 0 .6.8.72 1.15.72.71 0 .92-.38.92-.59 0-.39-.4-.5-1.12-.7-.34-.1-1.24-.34-1.24-1.13 0-.44.43-1.16 1.55-1.16.84 0 1.55.4 1.55.94 0 .14-.09.42-.42.42-.07 0-.43 0-.45-.47-.03-.51-.48-.51-.56-.51-.49 0-.77.37-.77.78 0 .5.36.59.94.72.35.09 1.5.34 1.5 1.22 0 .73-.83 1.38-1.84 1.38-.66 0-1.51-.27-1.51-1.13 0-.39.2-.71.25-.71.03-.01.06.01.06.03z"/><path d="m8.63 62.35c0 1.22-.99 2.27-2.24 2.27-1.26 0-2.25-1.05-2.25-2.27 0-1.25 1.03-2.2 2.25-2.2s2.24.96 2.24 2.2zm-1.04-.17c0-.97-.57-1.45-1.1-1.45-.71 0-1.32.81-1.32 1.78 0 .81.44 1.5 1.14 1.5.73 0 1.28-.85 1.28-1.83z"/><path d="m10.9 64c0 .25-.09.62-.57.62-.24 0-.55-.11-.55-.62v-2.93c0-.6 0-.67-.1-.78-.02-.03-.21-.08-.21-.11 0-.04.2-.04.28-.04 1.12 0 1.13.42 1.14.8.17-.46.51-.72 1.02-.72.49 0 .59.3.59.46 0 .22-.16.45-.44.45-.09 0-.5-.12-.59-.12-.58 0-.58.33-.58.54v2.45z"/><path d="m14.81 64.63c-.99 0-1.78-.95-1.78-2.1 0-1.29.97-2.43 2.37-2.43 1.53 0 1.88 1.44 1.88 1.83 0 .04-.01.15-.05.15-.03 0-.05-.05-.07-.08-.09-.26-.62-1.03-1.54-1.03-.98 0-1.72.82-1.72 1.69 0 .72.49 1.13 1.14 1.13.59 0 1.05-.35 1.05-.71 0-.52.19-.85.65-.85.58 0 .59.48.6.85.01.38.02 1.07.6 1.54.03.03.25.16.25.17 0 .03-.04.03-.09.03-.81 0-1.42-.38-1.68-.81-.42.35-1.02.62-1.61.62z"/><path d="m22.33 62.11c.16 0 .28.14.28.27 0 .17-.14.28-.28.28h-3.48c-.15 0-.28-.13-.28-.27 0-.16.13-.28.28-.28z"/><path d="m27.71 64c0 .25-.09.62-.58.62-.34 0-.54-.19-.54-.62v-1.49c0-.84-.01-1.64-.82-1.64-.84 0-.84.9-.84 1.37v1.76c0 .25-.09.62-.58.62-.23 0-.54-.11-.54-.62v-2.92c0-.65 0-.71-.13-.81-.03-.01-.17-.04-.17-.07 0-.05.2-.05.27-.05.34 0 1.05.03 1.13.55.34-.39.8-.54 1.15-.54.5 0 1.02.21 1.41.86.38-.75 1.08-.86 1.37-.86.79 0 1.71.71 1.72 1.88.01 1.67.01 1.86.34 2.34.12.17.27.33.48.42.02.01.03.02.03.03 0 .04-.03.04-.09.04-1.96 0-1.96-1.54-1.96-2 0-.52 0-1.09-.02-1.25-.07-.34-.24-.75-.79-.75-.69 0-.81.63-.82.77-.02.14-.02.71-.02.93z"/><path d="m33.5 64.63c-.99 0-1.78-.95-1.78-2.1 0-1.29.97-2.43 2.37-2.43 1.53 0 1.88 1.44 1.88 1.83 0 .04-.01.15-.05.15-.03 0-.05-.05-.07-.08-.09-.26-.62-1.03-1.54-1.03-.98 0-1.72.82-1.72 1.69 0 .72.49 1.13 1.14 1.13.59 0 1.05-.35 1.05-.71 0-.52.19-.85.65-.85.58 0 .59.48.6.85.01.38.02 1.07.6 1.54.03.03.25.16.25.17 0 .03-.04.03-.09.03-.81 0-1.42-.38-1.68-.81-.42.35-1.02.62-1.61.62z"/><path d="m38.73 64c0 .25-.09.62-.57.62-.24 0-.55-.11-.55-.62v-2.93c0-.6 0-.67-.1-.78-.02-.03-.21-.08-.21-.11 0-.04.2-.04.28-.04 1.12 0 1.13.42 1.14.8.17-.46.51-.72 1.02-.72.49 0 .59.3.59.46 0 .22-.16.45-.44.45-.09 0-.5-.12-.59-.12-.58 0-.58.33-.58.54v2.45z"/><path d="m41.38 61.08c0-.6 0-.67-.1-.78-.02-.03-.21-.08-.21-.1 0-.05.2-.05.28-.05 1.14 0 1.14.43 1.14.93v1.03c0 .98 0 1.68.81 1.68.84 0 .84-.94.84-1.24v-1.85c0-.32.26-.56.56-.56.35 0 .56.28.56.56v2.25c0 .38 0 1.27.65 1.74.03.02.21.1.21.14 0 .03-.02.03-.1.03-.81 0-1.45-.31-1.73-1.04-.32.49-.79.78-1.37.78-.79 0-1.54-.66-1.54-1.74z"/><path d="m35.69 34.96c-.18 0-.87.11-1.02.11-.22 0-.77-.84-.91-.95-.07-.04-.44-.18-.44-.26 0-.11.15-.15.18-.15h13.48c1.09 0 1.6-.44 2.15-1.02.62-.69 1.06-1.17 2-1.17.87 0 1.97.62 1.97 1.71 0 .77-.58 1.64-2.19 1.64h-2.7c-2.81 0-6.6 1.28-6.6 4.08 0 2.84 3.39 2.92 5.36 2.99 1.09.04 2.11.73 2.11 2.04 0 .47-.22 2.33-2.55 2.33-3.64 0-6.52-3.24-6.52-7 0-2.77 1.28-3.86 1.9-4.37h-6.22zm3.24-5.62c-1.53 0-2.04-1.2-2.44-2.26-.29-.73-.91-2.26-1.82-2.26-.11 0-.55.15-.66.15-.04 0-.15-.07-.15-.18 0-.18 2-.95 3.72-.95 2.73 0 3.75 2.04 3.75 3.13 0 1.43-1.2 2.37-2.4 2.37zm2.88 2.15c-.4 0-.47 0-.47-.15 0-.04 1.06-.55 1.24-.69 2-1.42 2.51-3.68 2.95-5.5.58-2.48 2.51-2.48 2.92-2.48 1.42 0 2.62.91 2.62 2.66-.01 3.58-5.18 6.16-9.26 6.16z"/><path d="m64.48 70.45c-1.31 0-2.19.29-3.9.87-2.41.84-2.7.95-3.06.95-.33 0-2.44-.07-2.44-2.95 0-6.71 2.26-6.71 3.94-6.71.58 0 .66 0 .66.15 0 .11-.47.4-.51.47-.69.98-.77 4.41-.77 4.52 0 1.02.15 2.11 1.17 2.11.4 0 .8-.11 2.37-.66 1.86-.69 3.13-1.17 4.85-1.17 3.13 0 4.37 1.97 4.37 4.23 0 4.3-4.66 7.76-8.53 7.76-2.3 0-3.28-1.38-3.28-2.66 0-.29.07-.87.26-.87.07 0 .18.26.22.33.26.66 1.28.73 1.6.73 2.73 0 5.69-3.02 5.69-5.21-.02-1.63-1.62-1.89-2.64-1.89zm-1.13-9.11c-.8 0-2.41-.55-2.41-2.62 0-1.42 0-1.97-1.02-1.97-.4 0-.62 0-.62-.15 0-.29 1.97-.36 2.33-.36.87 0 4.12 0 4.12 2.7 0 1.34-1.09 2.4-2.4 2.4z"/><path d="m37.36 83.43h-5.94c-.15 0-.84.11-.98.11-.22 0-.73-.8-.87-.91-.07-.04-.47-.22-.47-.29s.07-.15.18-.15h8.09v-1.2c0-1.13-.11-1.71-.36-1.97-.07-.07-.51-.26-.51-.33 0-.15.07-.18.58-.18 1.49 0 3.61.33 3.61 2.3v1.38h3.68c.58 0 1.17-.07 1.68-.69.58-.66.87-.98 1.53-.98.77 0 1.53.66 1.53 1.53 0 .66-.47 1.38-1.68 1.38h-6.74v2.7c0 .4.04 2.08.07 2.41h1.02c.47 0 1.13-.07 1.64-.66.66-.73.91-1.06 1.57-1.06.77 0 1.53.69 1.53 1.53 0 .62-.4 1.42-1.68 1.42h-4.08c0 .84.04 2.08-.11 3.46 4.85.69 7.33 1.02 7.33 2.99 0 1.02-.95 1.75-1.79 1.75-.55 0-.84-.11-3.28-1.09-.73-.29-1.71-.66-2.7-.95-.91 3.46-3.21 5.65-6.05 5.65-2.33 0-3.97-1.97-3.97-4.05 0-2.41 2.3-4.7 7.03-4.59.15-1.31.15-1.75.11-3.17h-3.32c-.18 0-.87.07-1.02.07-.18 0-.22-.04-.51-.51-.26-.4-.33-.4-.73-.51-.04-.04-.07-.04-.07-.15 0-.15.11-.15.18-.15h5.5zm-1.97 11.91c-1.82 0-3.13.58-3.13 1.46 0 .66.66 1.2 1.53 1.2.4 0 2 0 2.95-2.55-.65-.11-1.24-.11-1.35-.11z"/><path d="m56.8 127.44c0 1.93-.85 3.49-2.16 4.91.85.63 1.3.97 1.3 1.86 0 1.19-1.04 1.56-1.49 1.56-.56 0-.74-.15-2.19-1.38-2.01 1.3-4.2 1.93-5.32 1.93-1.71 0-3.23-1.52-3.23-3.49 0-2.08 1.71-3.31 3.79-3.31 1.56 0 3.2.67 4.76 1.41 2.04-1.6 2.49-2.86 2.49-3.79 0-2.08-2.16-2.86-3.9-2.86-2.19 0-5.06 1.41-5.8 1.78-1.38.67-2.04 1.04-2.45 1.04-.71 0-1.52-.59-1.52-1.49 0-.59.04-.63 1.26-2.04 2.64-2.97 5.46-6.21 5.46-7.84 0-.63-.52-.86-1.3-.86-.86 0-1.97.3-2.3.41-.67.22-.74.22-.78.22-.22 0-.89-.71-1.08-.74-.04-.04-.41-.11-.41-.22 0-.22 2.27-1.04 4.72-1.04 4.2 0 5.69 2.16 5.69 3.53 0 1.82-1.45 3.57-3.16 5.2 5.91-.07 7.62 2.76 7.62 5.21zm-9.59 3.57c-.41 0-.97.3-.97.97 0 .63.56 1.08 1.15 1.08.71 0 1.97-.52 2.42-.67-.66-.56-1.78-1.38-2.6-1.38z"/></g><path d="m35.47 53.18c.15-.29.15-.36-.22-.8-.36-.44-.87-1.9-1.02-2.26s-.29-1.9-.29-2.41-.15-1.46-.36-1.75c-.22-.29-.22-1.09.07-1.82s.15-3.72-.07-4.01-.15-.73-.15-1.09-.22 0-.22 0-.36.66-.29 1.02.07.8-.22 3.72.22 3.43.22 4.15c0 .73.51 2.55.51 2.55.44 2.55 1.53 2.77 1.75 3.28s.66 1.46.66 1.46-.52-1.75-.37-2.04z" fill="#f4b345"/><path d="m99.39 38.67s-.58-1.38-.15-2.11c.44-.73-.73-2.62-.8-3.13s-.44-2.33-3.79-9.26h-.29s-1.38-3.64-5.69-7.29c0 0-1.09-1.31-1.75-1.38 0 0-.95-.58-1.17-.87s-.66-.58-3.94-2.19l-.35-.44-1.31-.22s-1.46-1.31-11.01-2.99c0 0-.66-.29-.8 0 0 0-.22.36-.44.07s-.73-.07-.73-.07l-.29-.15h-1.24s-.8-.58-1.31-.66c0 0-.22-.22-.51.44 0 0-.22.36-.66-.29-.44-.66-1.09 0-1.09 0s-.15.29-1.17.22l-1.02-.07s-.44.15-.8.36c-.36.22-1.31 1.17-3.28 1.6-1.97.44-2.26.44-4.3 1.68s-2.84 1.46-2.84 1.46-1.82.8-4.01 3.43-2.92 2.92-2.92 2.92l1.31-.51s3.86-3.94 9.69-6.41h1.09s2.84-1.09 4.52-.15c0 0 1.09.58 1.31.15 0 0 .8.51 1.17.15.36-.36.73 0 .73 0s.8.51 1.9-.15c1.09-.66 1.38-1.17 1.53-1.38.15-.22.36-.29.51-.22s.07.58 1.75-.66 13.27 2.19 19.1 7.36c0 0 1.53 2.33 2.41 2.41l2.33 2.55s.8 1.38 1.75 2.19c0 0 1.38 2.77 1.75 3.06.36.29.36 1.02.36 1.02s1.24 3.57 1.68 3.94c0 0 1.38 3.13 1.31 12.39 0 0-.58.58 0 1.17 0 0 .66 8.09-7.87 18.15h-.66l-2.04 1.75s-.66 0-3.13 2.55l-1.31.22s-.58.22-.87.51-2.77 2.55-3.43 2.84l-.58.22-.07.36-1.46.95 1.6-.51s1.46.15 3.21-.87c0 0 .8-.29 1.75-.15.95.15 3.06-.8 3.21-1.9l2.04-1.97s.58-.22.66-.87c0 0 .95-.73 1.31-2.84 0 0 5.61-6.2 6.41-10.2 0 0 1.6-2.62 1.9-7.29 0 0 1.46-1.82 1.31-3.79-.01-.02.43-.61-.52-5.13z" fill="#f4b345"/><path d="m74.24 74.68s-.15-.44.22-.29c.36.15.8.22.8.22s0 .22-.15.22-.58.14-.87-.15z" fill="#f4b345"/><path d="m80.59 9.43c.04-.01.08-.04.12-.06.29.59 1.06.33.96-.24-.05-.29-.27-.39-.47-.38.19-.41.28-.92.21-1.35-.13-.78-.44-1.27-.66-1.82-.15-.39-.02-.71-.09-1.37-.01-.08-.02-.52-.11-.87 3.1-.27 2.76-1.71 2.59-1.96-.18-.26-.47-.37-.97.42-.27.42-.82.72-1.29.91.99-.73 1.19-1.86.9-2.45-.26-.54-1.05-.19-.89.53.2.91-.56 1.69-.73 1.85.01-.04-.02-.11-.27-.26-.4-.24-1.15-.06-1.66.02-.29-.1-.4.29-.33.35 0 0-.09.39.05.56-.03.07-.24.63.36 1.26.21.22.29.46.29.7-.01 0-.01 0-.02 0-.31-.02-.59-.03-.68 0-.24.08-.88-.39-.88-.39s-.02-.37-.47-.38l-.61-1.99c.5-.17.91-.32.91-.32.88-.37.09-1.73-.37-1.57-.46.17-1.82.99-2.45 1.35-.55.3-.11 1.11.24 1.05.24-.04.81-.22 1.34-.4.15.5.41 1.29.63 1.98-.1.12-.07.33 0 .51-.2.24.17.72.35.75.01 0 .03 0 .04.01.02.06.03.11.04.14.06.25.26.3.25-.09.2.04.45.08.69.14.25.06.64.01.88-.03-.1.35-.23.67-.18.93-.81-.82-1.71.44-1.73.19-.02-.32-.07-.63-.42-.76-.35-.14-.56.21-.35.56s.24.85.49 1.11.5-.1.74-.23.33.17 1.09 1.03c.44.5.98.8 1.49.86-.35.62.05 1.05.14 1.13.1.08-.28.35-.54.18-.27-.17-.81.09-.19.46.61.37 1.66-.4 1.74-.7.08-.31-.22-.25-.5-.53-.14-.14-.06-.41.06-.64.08-.06.17-.12.26-.19z" fill="#f4b345"/></svg>